<svg width="22" height="22" viewBox="0 0 22 22" fill="none" xmlns="http://www.w3.org/2000/svg">
<g clip-path="url(#clip0_1_2354)">
<path d="M15.124 0C13.9512 0.0811245 12.5803 0.83187 11.7814 1.80949C11.0527 2.69636 10.4532 4.0136 10.6869 5.29372C11.9684 5.33359 13.2925 4.56497 14.0598 3.57085C14.7775 2.64548 15.3207 1.33649 15.124 0Z" fill="white"/>
<path d="M19.7591 7.38097C18.633 5.96885 17.0504 5.14935 15.5558 5.14935C13.5827 5.14935 12.748 6.09397 11.3772 6.09397C9.96368 6.09397 8.88981 5.1521 7.18345 5.1521C5.50733 5.1521 3.7226 6.17647 2.59098 7.92821C1.00011 10.3949 1.27236 15.0328 3.85047 18.9831C4.77309 20.3966 6.00508 21.9861 7.61657 21.9999C9.05069 22.0136 9.45494 21.08 11.3978 21.0704C13.3407 21.0594 13.7092 22.0123 15.1405 21.9971C16.7534 21.9848 18.0528 20.2234 18.9754 18.8099C19.6368 17.7965 19.8829 17.2864 20.3957 16.1424C16.6654 14.722 16.0673 9.41733 19.7591 7.38097Z" fill="white"/>
</g>
<defs>
<clipPath id="clip0_1_2354">
<rect width="22" height="22" fill="white"/>
</clipPath>
</defs>
</svg>
