<svg width="22" height="22" viewBox="0 0 22 22" fill="none" xmlns="http://www.w3.org/2000/svg">
<g clip-path="url(#clip0_1_2246)">
<path d="M21.1693 9.08786L12.1957 9.08743C11.7995 9.08743 11.4783 9.40858 11.4783 9.80484V12.6715C11.4783 13.0677 11.7995 13.3889 12.1957 13.3889H17.2491C16.6957 14.825 15.6629 16.0276 14.3452 16.7918L16.5 20.5218C19.9565 18.5228 22 15.0153 22 11.0889C22 10.5299 21.9588 10.1302 21.8764 9.68019C21.8137 9.33828 21.5169 9.08786 21.1693 9.08786Z" fill="#167EE6"/>
<path d="M11 17.6951C8.52702 17.6951 6.36809 16.3439 5.20858 14.3444L1.47864 16.4943C3.37678 19.7841 6.93262 21.9994 11 21.9994C12.9954 21.9994 14.8781 21.4622 16.5 20.5259V20.5208L14.3453 16.7907C13.3597 17.3623 12.2191 17.6951 11 17.6951Z" fill="#12B347"/>
<path d="M16.5 20.5262V20.521L14.3452 16.7909C13.3596 17.3625 12.2192 17.6953 11 17.6953V21.9996C12.9953 21.9996 14.8782 21.4624 16.5 20.5262Z" fill="#0F993E"/>
<path d="M4.30435 10.9998C4.30435 9.78082 4.63701 8.64039 5.20854 7.65481L1.4786 5.50491C0.537195 7.1217 0 8.99935 0 10.9998C0 13.0003 0.537195 14.8779 1.4786 16.4947L5.20854 14.3448C4.63701 13.3592 4.30435 12.2188 4.30435 10.9998Z" fill="#FFD500"/>
<path d="M11 4.30435C12.6127 4.30435 14.094 4.87738 15.251 5.83056C15.5365 6.06568 15.9513 6.04871 16.2128 5.78725L18.2439 3.75611C18.5406 3.45946 18.5194 2.97387 18.2025 2.69895C16.264 1.0172 13.7417 0 11 0C6.93262 0 3.37678 2.21534 1.47864 5.50511L5.20858 7.65501C6.3681 5.65555 8.52702 4.30435 11 4.30435Z" fill="#FF4B26"/>
<path d="M15.251 5.83056C15.5364 6.06568 15.9513 6.04871 16.2128 5.78725L18.2439 3.75611C18.5405 3.45946 18.5194 2.97387 18.2025 2.69895C16.264 1.01716 13.7417 0 11 0V4.30435C12.6126 4.30435 14.094 4.87738 15.251 5.83056Z" fill="#D93F21"/>
</g>
<defs>
<clipPath id="clip0_1_2246">
<rect width="22" height="22" fill="white"/>
</clipPath>
</defs>
</svg>
